<svg width="48" height="48" viewBox="0 0 48 48" fill="none" xmlns="http://www.w3.org/2000/svg">
<path fill-rule="evenodd" clip-rule="evenodd" d="M28.6571 8.13935C28.9679 7.98285 29.3276 7.95705 29.6572 8.06762C29.9868 8.17818 30.2594 8.41606 30.415 8.72897L34.2609 16.4768C36.6251 16.6599 38.1086 17.1281 39.0662 18.3196C40.6388 20.2804 40.0115 23.2303 38.7569 29.1318L38.0073 32.6519C37.1563 36.6526 36.7317 38.6521 35.2901 39.826C33.8485 41 31.8181 41 27.7572 41H20.2435C16.1826 41 14.1522 41 12.7124 39.826C11.269 38.6521 10.8427 36.6526 9.99347 32.6519L9.24385 29.1318C7.98924 23.2303 7.36019 20.2804 8.93456 18.3196C9.89212 17.1263 11.3756 16.6599 13.7398 16.4768L17.5858 8.72897C17.7427 8.41855 18.015 8.18316 18.3434 8.0741C18.6718 7.96503 19.0297 7.99114 19.3391 8.14673C19.6485 8.30232 19.8843 8.57478 19.9951 8.90473C20.1059 9.23468 20.0828 9.59538 19.9307 9.90822L16.7243 16.3677C17.5683 16.3589 18.4892 16.3589 19.4957 16.3589H28.5051C29.5116 16.3589 30.4324 16.3589 31.2764 16.3677L28.07 9.90822C27.9148 9.595 27.8894 9.23249 27.9995 8.90043C28.1096 8.56837 28.3462 8.29573 28.6571 8.13935ZM15.7004 25.1593C15.7004 24.8092 15.8384 24.4734 16.0842 24.2259C16.33 23.9783 16.6633 23.8392 17.0109 23.8392H30.9898C31.3374 23.8392 31.6708 23.9783 31.9165 24.2259C32.1623 24.4734 32.3004 24.8092 32.3004 25.1593C32.3004 25.5094 32.1623 25.8452 31.9165 26.0927C31.6708 26.3403 31.3374 26.4794 30.9898 26.4794H17.0109C16.6633 26.4794 16.33 26.3403 16.0842 26.0927C15.8384 25.8452 15.7004 25.5094 15.7004 25.1593ZM20.5056 29.1195C20.1581 29.1195 19.8247 29.2586 19.579 29.5061C19.3332 29.7537 19.1951 30.0894 19.1951 30.4395C19.1951 30.7896 19.3332 31.1254 19.579 31.373C19.8247 31.6205 20.1581 31.7596 20.5056 31.7596H27.4951C27.8427 31.7596 28.176 31.6205 28.4218 31.373C28.6676 31.1254 28.8056 30.7896 28.8056 30.4395C28.8056 30.0894 28.6676 29.7537 28.4218 29.5061C28.176 29.2586 27.8427 29.1195 27.4951 29.1195H20.5056Z" fill="white"/>
</svg>
