<svg width="36" height="36" viewBox="0 0 36 36" fill="none" xmlns="http://www.w3.org/2000/svg">
<path d="M10.2857 26.5556C10.2857 27.9 11.4429 29 12.8571 29H23.1429C24.5571 29 25.7143 27.9 25.7143 26.5556V14.3333C25.7143 12.9889 24.5571 11.8889 23.1429 11.8889H12.8571C11.4429 11.8889 10.2857 12.9889 10.2857 14.3333V26.5556ZM25.7143 8.22222H22.5L21.5871 7.35444C21.3557 7.13444 21.0214 7 20.6871 7H15.3129C14.9786 7 14.6443 7.13444 14.4129 7.35444L13.5 8.22222H10.2857C9.57857 8.22222 9 8.77222 9 9.44444C9 10.1167 9.57857 10.6667 10.2857 10.6667H25.7143C26.4214 10.6667 27 10.1167 27 9.44444C27 8.77222 26.4214 8.22222 25.7143 8.22222Z" fill="currentColor"/>
</svg>
