<svg width="15" height="14" viewBox="0 0 15 14" fill="none" xmlns="http://www.w3.org/2000/svg">
<path d="M1.08333 2.77092H2.67933C2.80454 3.23159 3.07785 3.63826 3.45711 3.92819C3.83636 4.21812 4.30049 4.37521 4.77787 4.37521C5.25526 4.37521 5.71939 4.21812 6.09864 3.92819C6.4779 3.63826 6.75121 3.23159 6.87642 2.77092H13.9167C14.0714 2.77092 14.2197 2.70947 14.3291 2.60007C14.4385 2.49068 14.5 2.34231 14.5 2.1876C14.5 2.0329 14.4385 1.88453 14.3291 1.77513C14.2197 1.66574 14.0714 1.60428 13.9167 1.60428H6.87642C6.75121 1.14362 6.4779 0.736947 6.09864 0.447015C5.71939 0.157083 5.25526 0 4.77787 0C4.30049 0 3.83636 0.157083 3.45711 0.447015C3.07785 0.736947 2.80454 1.14362 2.67933 1.60428H1.08333C0.928624 1.60428 0.780251 1.66574 0.670854 1.77513C0.561458 1.88453 0.5 2.0329 0.5 2.1876C0.5 2.34231 0.561458 2.49068 0.670854 2.60007C0.780251 2.70947 0.928624 2.77092 1.08333 2.77092ZM4.77758 1.16679C4.97949 1.16679 5.17685 1.22666 5.34473 1.33883C5.5126 1.451 5.64345 1.61043 5.72071 1.79696C5.79797 1.98348 5.81819 2.18874 5.7788 2.38675C5.73941 2.58477 5.64219 2.76666 5.49942 2.90943C5.35666 3.05219 5.17476 3.14941 4.97674 3.1888C4.77872 3.22819 4.57346 3.20797 4.38693 3.13071C4.20039 3.05345 4.04096 2.92261 3.92879 2.75474C3.81662 2.58686 3.75675 2.3895 3.75675 2.1876C3.75706 1.91696 3.86471 1.65749 4.05609 1.46612C4.24746 1.27475 4.50694 1.1671 4.77758 1.16679Z" fill="white"/>
<path d="M13.9167 6.41668H12.3207C12.1957 5.95591 11.9225 5.54909 11.5432 5.25904C11.164 4.96899 10.6999 4.81183 10.2224 4.81183C9.74498 4.81183 9.28082 4.96899 8.90159 5.25904C8.52237 5.54909 8.24916 5.95591 8.12417 6.41668H1.08333C0.928624 6.41668 0.780251 6.47814 0.670854 6.58753C0.561458 6.69692 0.5 6.84529 0.5 7C0.5 7.15471 0.561458 7.30308 0.670854 7.41247C0.780251 7.52186 0.928624 7.58332 1.08333 7.58332H8.12417C8.24916 8.04409 8.52237 8.45091 8.90159 8.74096C9.28082 9.03101 9.74498 9.18817 10.2224 9.18817C10.6999 9.18817 11.164 9.03101 11.5432 8.74096C11.9225 8.45091 12.1957 8.04409 12.3207 7.58332H13.9167C14.0714 7.58332 14.2197 7.52186 14.3291 7.41247C14.4385 7.30308 14.5 7.15471 14.5 7C14.5 6.84529 14.4385 6.69692 14.3291 6.58753C14.2197 6.47814 14.0714 6.41668 13.9167 6.41668ZM10.2224 8.02081C10.0205 8.02081 9.82315 7.96094 9.65527 7.84877C9.4874 7.73661 9.35655 7.57718 9.27929 7.39065C9.20203 7.20412 9.18181 6.99887 9.2212 6.80085C9.26059 6.60283 9.35781 6.42094 9.50058 6.27818C9.64334 6.13541 9.82524 6.03819 10.0233 5.9988C10.2213 5.95941 10.4265 5.97963 10.6131 6.05689C10.7996 6.13416 10.959 6.265 11.0712 6.43287C11.1834 6.60074 11.2432 6.7981 11.2432 7C11.2429 7.27064 11.1353 7.53011 10.9439 7.72148C10.7525 7.91285 10.4931 8.0205 10.2224 8.02081Z" fill="white"/>
<path d="M13.9167 11.2291H6.87642C6.75121 10.7684 6.4779 10.3617 6.09864 10.0718C5.71939 9.78188 5.25526 9.62479 4.77787 9.62479C4.30049 9.62479 3.83636 9.78188 3.45711 10.0718C3.07785 10.3617 2.80454 10.7684 2.67933 11.2291H1.08333C0.928624 11.2291 0.780251 11.2905 0.670854 11.3999C0.561458 11.5093 0.5 11.6577 0.5 11.8124C0.5 11.9671 0.561458 12.1155 0.670854 12.2249C0.780251 12.3343 0.928624 12.3957 1.08333 12.3957H2.67933C2.80454 12.8564 3.07785 13.2631 3.45711 13.553C3.83636 13.8429 4.30049 14 4.77787 14C5.25526 14 5.71939 13.8429 6.09864 13.553C6.4779 13.2631 6.75121 12.8564 6.87642 12.3957H13.9167C14.0714 12.3957 14.2197 12.3343 14.3291 12.2249C14.4385 12.1155 14.5 11.9671 14.5 11.8124C14.5 11.6577 14.4385 11.5093 14.3291 11.3999C14.2197 11.2905 14.0714 11.2291 13.9167 11.2291ZM4.77758 12.8332C4.57568 12.8332 4.37831 12.7733 4.21044 12.6612C4.04256 12.549 3.91172 12.3896 3.83446 12.203C3.75719 12.0165 3.73698 11.8113 3.77637 11.6132C3.81575 11.4152 3.91298 11.2333 4.05574 11.0906C4.19851 10.9478 4.38041 10.8506 4.57843 10.8112C4.77645 10.7718 4.98171 10.792 5.16824 10.8693C5.35477 10.9466 5.5142 11.0774 5.62637 11.2453C5.73855 11.4131 5.79842 11.6105 5.79842 11.8124C5.79795 12.083 5.69025 12.3424 5.49891 12.5337C5.30757 12.725 5.04818 12.8327 4.77758 12.8332Z" fill="white"/>
</svg>
