<svg width="40" height="40" viewBox="0 0 40 40" fill="none" xmlns="http://www.w3.org/2000/svg">
<rect width="40" height="40" rx="4" fill="#FFFEF9"/>
<path d="M20.871 19L20 19.0159L19.129 19H11.871C11.64 19 11.4184 19.1054 11.2551 19.2929C11.0918 19.4804 11 19.7348 11 20C11 20.2652 11.0918 20.5196 11.2551 20.7071C11.4184 20.8946 11.64 21 11.871 21H19.129H20H20.871H28.129C28.36 21 28.5816 20.8946 28.7449 20.7071C28.9082 20.5196 29 20.2652 29 20C28.997 19.7359 28.9043 19.4835 28.7416 19.2967C28.5789 19.1099 28.3591 19.0035 28.129 19H20.871Z" fill="#282828"/>
</svg>
