<svg width="21" height="21" viewBox="0 0 21 21" fill="none" xmlns="http://www.w3.org/2000/svg">
<path d="M7.03511 9.6667H5.63159C3.93334 9.6667 3 8.73336 3 7.03511V5.63159C3 3.93334 3.93334 3 5.63159 3H7.03511C8.73336 3 9.6667 3.93334 9.6667 5.63159V7.03511C9.6667 8.73336 8.73336 9.6667 7.03511 9.6667ZM5.63159 4.05264C4.52281 4.05264 4.05264 4.52281 4.05264 5.63159V7.03511C4.05264 8.14389 4.52281 8.61406 5.63159 8.61406H7.03511C8.14389 8.61406 8.61406 8.14389 8.61406 7.03511V5.63159C8.61406 4.52281 8.14389 4.05264 7.03511 4.05264H5.63159Z" fill="white"/>
<path d="M5.63159 4.05264C4.52281 4.05264 4.05264 4.52281 4.05264 5.63159V7.03511C4.05264 8.14389 4.52281 8.61406 5.63159 8.61406H7.03511C8.14389 8.61406 8.61406 8.14389 8.61406 7.03511V5.63159C8.61406 4.52281 8.14389 4.05264 7.03511 4.05264H5.63159Z" fill="white"/>
<path d="M15.3686 9.6667H13.9651C12.2668 9.6667 11.3335 8.73336 11.3335 7.03511V5.63159C11.3335 3.93334 12.2668 3 13.9651 3H15.3686C17.0669 3 18.0002 3.93334 18.0002 5.63159V7.03511C18.0002 8.73336 17.0669 9.6667 15.3686 9.6667ZM13.9651 4.05264C12.8563 4.05264 12.3861 4.52281 12.3861 5.63159V7.03511C12.3861 8.14389 12.8563 8.61406 13.9651 8.61406H15.3686C16.4774 8.61406 16.9476 8.14389 16.9476 7.03511V5.63159C16.9476 4.52281 16.4774 4.05264 15.3686 4.05264H13.9651Z" fill="white"/>
<path d="M13.9651 4.05264C12.8563 4.05264 12.3861 4.52281 12.3861 5.63159V7.03511C12.3861 8.14389 12.8563 8.61406 13.9651 8.61406H15.3686C16.4774 8.61406 16.9476 8.14389 16.9476 7.03511V5.63159C16.9476 4.52281 16.4774 4.05264 15.3686 4.05264H13.9651Z" fill="white"/>
<path d="M15.3686 18H13.9651C12.2668 18 11.3335 17.0666 11.3335 15.3684V13.9648C11.3335 12.2666 12.2668 11.3333 13.9651 11.3333H15.3686C17.0669 11.3333 18.0002 12.2666 18.0002 13.9648V15.3684C18.0002 17.0666 17.0669 18 15.3686 18ZM13.9651 12.3859C12.8563 12.3859 12.3861 12.8561 12.3861 13.9648V15.3684C12.3861 16.4771 12.8563 16.9473 13.9651 16.9473H15.3686C16.4774 16.9473 16.9476 16.4771 16.9476 15.3684V13.9648C16.9476 12.8561 16.4774 12.3859 15.3686 12.3859H13.9651Z" fill="white"/>
<path d="M13.9651 12.3859C12.8563 12.3859 12.3861 12.8561 12.3861 13.9648V15.3684C12.3861 16.4771 12.8563 16.9473 13.9651 16.9473H15.3686C16.4774 16.9473 16.9476 16.4771 16.9476 15.3684V13.9648C16.9476 12.8561 16.4774 12.3859 15.3686 12.3859H13.9651Z" fill="white"/>
<path d="M7.03511 18H5.63159C3.93334 18 3 17.0666 3 15.3684V13.9648C3 12.2666 3.93334 11.3333 5.63159 11.3333H7.03511C8.73336 11.3333 9.6667 12.2666 9.6667 13.9648V15.3684C9.6667 17.0666 8.73336 18 7.03511 18ZM5.63159 12.3859C4.52281 12.3859 4.05264 12.8561 4.05264 13.9648V15.3684C4.05264 16.4771 4.52281 16.9473 5.63159 16.9473H7.03511C8.14389 16.9473 8.61406 16.4771 8.61406 15.3684V13.9648C8.61406 12.8561 8.14389 12.3859 7.03511 12.3859H5.63159Z" fill="white"/>
<path d="M5.63159 12.3859C4.52281 12.3859 4.05264 12.8561 4.05264 13.9648V15.3684C4.05264 16.4771 4.52281 16.9473 5.63159 16.9473H7.03511C8.14389 16.9473 8.61406 16.4771 8.61406 15.3684V13.9648C8.61406 12.8561 8.14389 12.3859 7.03511 12.3859H5.63159Z" fill="white"/>
</svg>
