<svg width="60" height="60" viewBox="0 0 60 60" fill="none" xmlns="http://www.w3.org/2000/svg">
<path d="M44.6708 36.241L37.199 32.8925C36.8604 32.7475 36.491 32.6892 36.1243 32.7228C35.7575 32.7565 35.4049 32.8812 35.0985 33.0855C35.0674 33.1055 35.0378 33.1277 35.0099 33.1519L31.1047 36.4735C31.0642 36.4956 31.0191 36.5079 30.973 36.5096C30.9269 36.5112 30.881 36.5021 30.839 36.483C28.3289 35.2714 25.7286 32.6869 24.5123 30.2116C24.492 30.1702 24.4815 30.1248 24.4815 30.0787C24.4815 30.0327 24.492 29.9872 24.5123 29.9458L27.8449 25.9916C27.8688 25.9624 27.891 25.9318 27.9113 25.8999C28.1128 25.5923 28.2345 25.2393 28.2654 24.8728C28.2963 24.5064 28.2355 24.138 28.0885 23.801L24.7637 16.3417C24.5749 15.9014 24.2484 15.5342 23.8332 15.2952C23.4179 15.0562 22.9364 14.9583 22.4608 15.0163C20.3939 15.288 18.4967 16.303 17.1236 17.8717C15.7506 19.4404 14.9957 21.4553 15 23.54C15 35.9246 25.0753 46 37.4599 46C39.5445 46.004 41.5593 45.249 43.1279 43.876C44.6965 42.503 45.7116 40.6059 45.9836 38.5392C46.0415 38.0658 45.9449 37.5864 45.7084 37.1723C45.4718 36.7583 45.108 36.4316 44.6708 36.241Z" fill="#402800"/>
<path d="M30 40.5C33 43 36.5 43 41 41" stroke="white" stroke-width="2" stroke-linecap="round"/>
</svg>
