<svg width="22" height="21" viewBox="0 0 22 21" fill="none" xmlns="http://www.w3.org/2000/svg">
<path d="M17.9767 18H4.02326C3.73721 18 3.5 17.7568 3.5 17.4635C3.5 17.1701 3.73721 16.9269 4.02326 16.9269H5.21114H16.7555H17.9767C18.2628 16.9269 18.5 17.1701 18.5 17.4635C18.5 17.7568 18.2628 18 17.9767 18Z" fill="white"/>
<path d="M5.20897 17.4634H4.16246L4.19734 8.85726C4.19734 8.24917 4.46943 7.68403 4.93687 7.31203L9.8206 3.41314C10.5113 2.86229 11.4811 2.86229 12.1787 3.41314L17.0625 7.30487C17.5229 7.67687 17.802 8.25633 17.802 8.85726V17.4634H16.7555V16.9269V8.86442C16.7555 8.59257 16.6299 8.32788 16.4206 8.15619L11.5369 4.26446C11.2229 4.01407 10.7834 4.01407 10.4625 4.26446L5.57874 8.16335C5.36944 8.32789 5.24385 8.59257 5.24385 8.86442L5.21114 16.9269L5.20897 17.4634Z" fill="white"/>
<path d="M5.21114 16.9269H16.7555V8.86442C16.7555 8.59257 16.6299 8.32788 16.4206 8.15619L11.5369 4.26446C11.2229 4.01407 10.7834 4.01407 10.4625 4.26446L5.57874 8.16335C5.36944 8.32789 5.24385 8.59257 5.24385 8.86442L5.21114 16.9269Z" fill="white"/>
<path d="M14.913 17H7.08696C6.76609 17 6.5 16.7824 6.5 16.52V10.44C6.5 9.6464 7.29043 9 8.26087 9H13.7391C14.7096 9 15.5 9.6464 15.5 10.44V16.52C15.5 16.7824 15.2339 17 14.913 17ZM7.67391 16.04H14.3261V10.44C14.3261 10.1776 14.06 9.96 13.7391 9.96H8.26087C7.94 9.96 7.67391 10.1776 7.67391 10.44V16.04Z" fill="#126133"/>
<path d="M9 15C8.72667 15 8.5 14.7733 8.5 14.5V13.5C8.5 13.2267 8.72667 13 9 13C9.27333 13 9.5 13.2267 9.5 13.5V14.5C9.5 14.7733 9.27333 15 9 15Z" fill="#126133"/>
<path d="M12.6667 8H9.33333C8.87778 8 8.5 7.77333 8.5 7.5C8.5 7.22667 8.87778 7 9.33333 7H12.6667C13.1222 7 13.5 7.22667 13.5 7.5C13.5 7.77333 13.1222 8 12.6667 8Z" fill="#126133"/>
</svg>
