<svg width="60" height="60" viewBox="0 0 60 60" fill="none" xmlns="http://www.w3.org/2000/svg">
<path d="M29.2885 49.0846C30.0301 49.8459 31.2199 49.8459 31.9615 49.0846C35.7438 45.2017 46.25 33.5872 46.25 24.375C46.25 20.231 44.6038 16.2567 41.6735 13.3265C38.7433 10.3962 34.769 8.75 30.625 8.75C26.481 8.75 22.5067 10.3962 19.5765 13.3265C16.6462 16.2567 15 20.231 15 24.375C15 33.5872 25.5062 45.2017 29.2885 49.0846Z" fill="#402800"/>
<path d="M26.0877 28.9123C27.2911 30.1156 28.9232 30.7917 30.625 30.7917C32.3268 30.7917 33.9589 30.1156 35.1623 28.9123C36.3656 27.7089 37.0417 26.0768 37.0417 24.375C37.0417 22.6732 36.3656 21.0411 35.1623 19.8377C33.9589 18.6344 32.3268 17.9583 30.625 17.9583C28.9232 17.9583 27.2911 18.6344 26.0877 19.8377C24.8844 21.0411 24.2083 22.6732 24.2083 24.375C24.2083 26.0768 24.8844 27.7089 26.0877 28.9123ZM35.6631 29.4131C34.3269 30.7493 32.5147 31.5 30.625 31.5C28.7353 31.5 26.9231 30.7493 25.5869 29.4131C24.2507 28.0769 23.5 26.2647 23.5 24.375C23.5 22.4853 24.2507 20.6731 25.5869 19.3369C26.9231 18.0007 28.7353 17.25 30.625 17.25C32.5147 17.25 34.3269 18.0007 35.6631 19.3369C36.9993 20.6731 37.75 22.4853 37.75 24.375C37.75 26.2647 36.9993 28.0769 35.6631 29.4131Z" stroke="white" stroke-width="2"/>
</svg>
