<svg width="40" height="40" viewBox="0 0 40 40" fill="none" xmlns="http://www.w3.org/2000/svg">
<path d="M19.0862 32.2664C19.8187 33.0365 21.0146 33.0365 21.7472 32.2664C24.5557 29.314 30.8333 22.0643 30.8333 16.25C30.8333 13.4874 29.7359 10.8378 27.7824 8.88434C25.8289 6.93084 23.1793 5.83337 20.4167 5.83337C17.654 5.83337 15.0045 6.93084 13.051 8.88434C11.0975 10.8378 10 13.4874 10 16.25C10 22.0643 16.2776 29.314 19.0862 32.2664Z" fill="white"/>
<mask id="path-2-inside-1_399_797" fill="white">
<path d="M20.4167 19.8612C19.4589 19.8612 18.5404 19.4807 17.8632 18.8035C17.186 18.1263 16.8056 17.2078 16.8056 16.25C16.8056 15.2923 17.186 14.3738 17.8632 13.6966C18.5404 13.0194 19.4589 12.6389 20.4167 12.6389C21.3744 12.6389 22.2929 13.0194 22.9701 13.6966C23.6473 14.3738 24.0278 15.2923 24.0278 16.25C24.0278 17.2078 23.6473 18.1263 22.9701 18.8035C22.2929 19.4807 21.3744 19.8612 20.4167 19.8612ZM20.4167 21.6667C21.8533 21.6667 23.231 21.096 24.2468 20.0802C25.2627 19.0644 25.8333 17.6866 25.8333 16.25C25.8333 14.8135 25.2627 13.4357 24.2468 12.4199C23.231 11.4041 21.8533 10.8334 20.4167 10.8334C18.9801 10.8334 17.6023 11.4041 16.5865 12.4199C15.5707 13.4357 15 14.8135 15 16.25C15 17.6866 15.5707 19.0644 16.5865 20.0802C17.6023 21.096 18.9801 21.6667 20.4167 21.6667Z"/>
</mask>
<path d="M20.4167 19.8612L20.4167 21.8612L20.4167 19.8612ZM16.8056 16.25L14.8056 16.25L16.8056 16.25ZM20.4167 12.6389L20.4167 10.6389L20.4167 12.6389ZM20.4167 21.6667V23.6667V21.6667ZM20.4167 10.8334L20.4167 8.83337L20.4167 10.8334ZM20.4167 17.8612C19.9894 17.8612 19.5796 17.6914 19.2774 17.3893L16.449 20.2177C17.5013 21.27 18.9285 21.8612 20.4167 21.8612L20.4167 17.8612ZM19.2774 17.3893C18.9753 17.0871 18.8056 16.6773 18.8056 16.25L14.8056 16.25C14.8056 17.7382 15.3967 19.1654 16.449 20.2177L19.2774 17.3893ZM18.8056 16.25C18.8056 15.8227 18.9753 15.413 19.2774 15.1108L16.449 12.2824C15.3967 13.3347 14.8056 14.7619 14.8056 16.25H18.8056ZM19.2774 15.1108C19.5796 14.8087 19.9894 14.6389 20.4167 14.6389L20.4167 10.6389C18.9285 10.6389 17.5013 11.2301 16.449 12.2824L19.2774 15.1108ZM20.4167 14.6389C20.844 14.6389 21.2538 14.8087 21.5559 15.1108L24.3843 12.2824C23.332 11.2301 21.9048 10.6389 20.4167 10.6389L20.4167 14.6389ZM21.5559 15.1108C21.858 15.413 22.0278 15.8227 22.0278 16.25H26.0278C26.0278 14.7619 25.4366 13.3347 24.3843 12.2824L21.5559 15.1108ZM22.0278 16.25C22.0278 16.6773 21.858 17.0871 21.5559 17.3893L24.3843 20.2177C25.4366 19.1654 26.0278 17.7382 26.0278 16.25H22.0278ZM21.5559 17.3893C21.2538 17.6914 20.844 17.8612 20.4167 17.8612L20.4167 21.8612C21.9048 21.8612 23.332 21.27 24.3843 20.2177L21.5559 17.3893ZM20.4167 23.6667C22.3837 23.6667 24.2701 22.8853 25.661 21.4944L22.8326 18.666C22.1919 19.3067 21.3228 19.6667 20.4167 19.6667V23.6667ZM25.661 21.4944C27.0519 20.1035 27.8333 18.2171 27.8333 16.25H23.8333C23.8333 17.1562 23.4734 18.0252 22.8326 18.666L25.661 21.4944ZM27.8333 16.25C27.8333 14.283 27.0519 12.3966 25.661 11.0057L22.8326 13.8341C23.4734 14.4748 23.8333 15.3439 23.8333 16.25H27.8333ZM25.661 11.0057C24.2701 9.61477 22.3837 8.83337 20.4167 8.83337V12.8334C21.3228 12.8334 22.1919 13.1933 22.8326 13.8341L25.661 11.0057ZM20.4167 8.83337C18.4496 8.83337 16.5632 9.61477 15.1723 11.0057L18.0007 13.8341C18.6415 13.1933 19.5105 12.8334 20.4167 12.8334L20.4167 8.83337ZM15.1723 11.0057C13.7814 12.3966 13 14.283 13 16.25H17C17 15.3439 17.36 14.4748 18.0007 13.8341L15.1723 11.0057ZM13 16.25C13 18.2171 13.7814 20.1035 15.1723 21.4944L18.0007 18.666C17.36 18.0252 17 17.1562 17 16.25H13ZM15.1723 21.4944C16.5632 22.8853 18.4496 23.6667 20.4167 23.6667L20.4167 19.6667C19.5105 19.6667 18.6415 19.3067 18.0007 18.666L15.1723 21.4944Z" fill="#282828" mask="url(#path-2-inside-1_399_797)"/>
</svg>
