<svg width="60" height="60" viewBox="0 0 60 60" fill="none" xmlns="http://www.w3.org/2000/svg">
<path d="M30 10C41.046 10 50 18.954 50 30C50 41.046 41.046 50 30 50C18.954 50 10 41.046 10 30C10 18.954 18.954 10 30 10ZM28.14 21.162C27.7701 21.1631 27.4156 21.3105 27.154 21.572C26.8925 21.8336 26.7451 22.1881 26.744 22.558V33.72C26.744 34.492 27.368 35.116 28.14 35.116H39.302C39.4896 35.1231 39.6768 35.0923 39.8522 35.0254C40.0277 34.9585 40.1878 34.8569 40.3231 34.7266C40.4584 34.5964 40.566 34.4402 40.6395 34.2674C40.7129 34.0946 40.7508 33.9088 40.7508 33.721C40.7508 33.5332 40.7129 33.3474 40.6395 33.1746C40.566 33.0018 40.4584 32.8456 40.3231 32.7154C40.1878 32.5851 40.0277 32.4835 39.8522 32.4166C39.6768 32.3497 39.4896 32.3189 39.302 32.326H29.534V22.558C29.5329 22.1884 29.3858 21.8343 29.1247 21.5727C28.8635 21.3112 28.5096 21.1636 28.14 21.162Z" fill="#402800"/>
</svg>
