<svg width="40" height="40" viewBox="0 0 40 40" fill="none" xmlns="http://www.w3.org/2000/svg">
<g clip-path="url(#clip0_599_3498)">
<path d="M21.6165 19.9751L30.7355 10.8805C30.9157 10.6706 31.0099 10.4006 30.9992 10.1245C30.9885 9.84842 30.8737 9.58651 30.6778 9.39113C30.4819 9.19575 30.2193 9.08129 29.9425 9.07063C29.6656 9.05996 29.3949 9.15388 29.1845 9.33361L20.0655 18.4282L10.9465 9.32264C10.7394 9.11606 10.4584 9 10.1655 9C9.87257 9 9.59163 9.11606 9.3845 9.32264C9.17736 9.52922 9.061 9.8094 9.061 10.1015C9.061 10.3937 9.17736 10.6739 9.3845 10.8805L18.5145 19.9751L9.3845 29.0697C9.26935 29.168 9.17583 29.2891 9.1098 29.4252C9.04377 29.5613 9.00667 29.7095 9.00082 29.8606C8.99497 30.0117 9.02049 30.1623 9.0758 30.3031C9.1311 30.4439 9.21498 30.5718 9.32218 30.6787C9.42938 30.7856 9.55758 30.8692 9.69874 30.9244C9.8399 30.9796 9.99097 31.005 10.1425 30.9992C10.2939 30.9933 10.4426 30.9563 10.5791 30.8905C10.7155 30.8246 10.8369 30.7314 10.9355 30.6165L20.0655 21.5219L29.1845 30.6165C29.3949 30.7963 29.6656 30.8902 29.9425 30.8795C30.2193 30.8688 30.4819 30.7544 30.6778 30.559C30.8737 30.3636 30.9885 30.1017 30.9992 29.8256C31.0099 29.5495 30.9157 29.2795 30.7355 29.0697L21.6165 19.9751Z" fill="#414141"/>
</g>
<defs>
<clipPath id="clip0_599_3498">
<rect width="40" height="40" fill="white"/>
</clipPath>
</defs>
</svg>
