<svg width="40" height="40" viewBox="0 0 40 40" fill="none" xmlns="http://www.w3.org/2000/svg">
<path d="M29.7806 24.1606L24.7993 21.9284C24.5736 21.8317 24.3274 21.7928 24.0828 21.8152C23.8383 21.8377 23.6033 21.9208 23.399 22.057C23.3783 22.0704 23.3586 22.0852 23.3399 22.1013L20.7365 24.3157C20.7095 24.3304 20.6794 24.3386 20.6487 24.3397C20.6179 24.3408 20.5873 24.3347 20.5593 24.322C18.8859 23.5143 17.1524 21.7913 16.3415 20.141C16.328 20.1135 16.321 20.0832 16.321 20.0525C16.321 20.0218 16.328 19.9915 16.3415 19.9639L18.5632 17.3277C18.5792 17.3083 18.594 17.2878 18.6075 17.2666C18.7419 17.0615 18.823 16.8262 18.8436 16.5819C18.8642 16.3376 18.8237 16.092 18.7256 15.8673L16.5092 10.8945C16.3833 10.6009 16.1656 10.3561 15.8888 10.1968C15.612 10.0375 15.2909 9.97222 14.9739 10.0108C13.5959 10.192 12.3311 10.8687 11.4157 11.9145C10.5004 12.9602 9.99711 14.3035 10 15.6933C10 23.9498 16.7169 30.6667 24.9733 30.6667C26.363 30.6693 27.7062 30.166 28.7519 29.2507C29.7976 28.3353 30.4744 27.0706 30.6558 25.6928C30.6943 25.3772 30.6299 25.0576 30.4723 24.7816C30.3146 24.5055 30.072 24.2877 29.7806 24.1606Z" fill="white"/>
<path d="M20 27C22 28.6667 24.3333 28.6667 27.3333 27.3333" stroke="#282828" stroke-width="1.33333" stroke-linecap="round"/>
</svg>
