<svg width="40" height="40" viewBox="0 0 40 40" fill="none" xmlns="http://www.w3.org/2000/svg">
<rect width="40" height="40" rx="4" fill="#FFFEF9"/>
<path d="M20.871 19.129V11.871C20.871 11.64 20.7792 11.4184 20.6159 11.2551C20.4525 11.0918 20.231 11 20 11C19.769 11 19.5475 11.0918 19.3841 11.2551C19.2208 11.4184 19.129 11.64 19.129 11.871V19.129H11.871C11.64 19.129 11.4184 19.2208 11.2551 19.3841C11.0918 19.5475 11 19.769 11 20C11 20.231 11.0918 20.4525 11.2551 20.6159C11.4184 20.7792 11.64 20.871 11.871 20.871H19.129V28.129C19.132 28.3591 19.2248 28.5789 19.3875 28.7416C19.5501 28.9043 19.7699 28.997 20 29C20.231 29 20.4525 28.9082 20.6159 28.7449C20.7792 28.5816 20.871 28.36 20.871 28.129V20.871H28.129C28.36 20.871 28.5816 20.7792 28.7449 20.6159C28.9082 20.4525 29 20.231 29 20C28.997 19.7699 28.9043 19.5501 28.7416 19.3875C28.5789 19.2248 28.3591 19.132 28.129 19.129H20.871Z" fill="#282828"/>
</svg>
