<svg width="32" height="32" viewBox="0 0 32 32" fill="none" xmlns="http://www.w3.org/2000/svg">
<path d="M16 19.291L7.27803 11.2076C7.20774 11.1411 7.12429 11.0885 7.03252 11.0528C6.94074 11.0172 6.84245 10.9992 6.74334 11C6.64423 11.0008 6.54627 11.0203 6.45513 11.0574C6.36398 11.0945 6.28146 11.1484 6.21235 11.216C6.14323 11.2837 6.08889 11.3637 6.05246 11.4515C6.01603 11.5393 5.99825 11.6331 6.00014 11.7275C6.00202 11.8219 6.02354 11.915 6.06345 12.0014C6.10336 12.0878 6.16086 12.1658 6.23263 12.2309L15.4773 20.7978C15.6172 20.9275 15.8048 21 16 21C16.1952 21 16.3828 20.9275 16.5227 20.7978L25.7674 12.2309C25.8391 12.1658 25.8966 12.0878 25.9366 12.0014C25.9765 11.915 25.998 11.8219 25.9999 11.7275C26.0018 11.6331 25.984 11.5393 25.9475 11.4515C25.9111 11.3637 25.8568 11.2837 25.7877 11.216C25.7185 11.1484 25.636 11.0945 25.5449 11.0574C25.4537 11.0203 25.3558 11.0008 25.2567 11C25.1576 10.9992 25.0593 11.0172 24.9675 11.0528C24.8757 11.0885 24.7923 11.1411 24.722 11.2076L16 19.291Z" fill="#282828"/>
</svg>
