<svg width="60" height="60" viewBox="0 0 60 60" fill="none" xmlns="http://www.w3.org/2000/svg">
<path d="M10 40.8929V20.3571C10 19.2679 10.4327 18.2232 11.203 17.453C11.9732 16.6827 13.0179 16.25 14.1071 16.25H46.9643C48.0536 16.25 49.0982 16.6827 49.8685 17.453C50.6387 18.2232 51.0714 19.2679 51.0714 20.3571V40.8929C51.0714 41.9821 50.6387 43.0268 49.8685 43.797C49.0982 44.5673 48.0536 45 46.9643 45H14.1071C13.0179 45 11.9732 44.5673 11.203 43.797C10.4327 43.0268 10 41.9821 10 40.8929Z" fill="#402800"/>
<path d="M20 24L30.2679 31.1875L40.5357 24" stroke="white" stroke-width="2.6" stroke-linecap="round" stroke-linejoin="round"/>
</svg>
