<svg width="112" height="75" viewBox="0 0 112 75" fill="none" xmlns="http://www.w3.org/2000/svg">
<path d="M50.199 21.614C50.4627 21.614 50.7266 21.6095 50.9903 21.6171C51.0641 21.6189 51.1784 21.5684 51.2053 21.6806C51.231 21.7873 51.1246 21.7934 51.0505 21.8333C50.3683 22.2007 49.7481 22.6506 49.2438 23.2454C48.4171 24.2197 48.0113 25.3702 47.805 26.6142C47.6644 27.463 47.6995 28.3136 47.7391 29.1621C47.7942 30.3507 47.7579 31.5373 47.6895 32.7217C47.6502 33.4015 47.4697 34.0649 47.1325 34.6687C47.0687 34.783 47.0536 34.8907 47.057 35.0095C47.112 36.919 46.9753 38.821 46.8308 40.7221C46.7827 41.3547 46.6944 41.9842 46.6242 42.6153C46.6167 42.6839 46.6236 42.7677 46.5166 42.758C46.4132 42.749 46.4259 42.6631 46.4226 42.5953C46.36 41.361 46.1861 40.1385 45.9693 38.9256C45.6802 37.3076 45.3422 35.6983 44.4746 34.2596C44.1375 33.7005 43.6222 33.3522 43.0831 33.0437C41.6377 32.2164 40.7076 30.9392 39.9368 29.5177C39.7109 29.1004 39.5549 28.6517 39.398 28.2032C39.0992 27.349 39.362 26.6496 40.1642 26.1162C40.7115 25.7527 41.3353 25.5571 41.9116 25.2611C42.5941 24.9103 43.2796 24.5759 43.6464 23.8124C43.8194 23.4525 44.2176 23.2064 44.6092 23.1371C45.5695 22.9678 46.4162 22.5173 47.3052 22.1677C48.2323 21.803 49.1906 21.5654 50.199 21.614Z" fill="currentColor"/>
<path d="M51.62 43.5011C52.0965 42.913 52.6417 42.5689 53.2498 42.3097C54.3977 41.8211 55.6147 41.6844 56.8421 41.6248C57.7039 41.5831 58.5705 41.5435 59.4145 41.3875C61.0782 41.0799 62.4516 40.3352 63.0715 38.6207C63.1195 38.487 63.1933 38.3631 63.2517 38.2327C63.271 38.1895 63.2786 38.1411 63.317 38.0041C63.4125 38.4105 63.2858 38.722 63.226 39.0126C62.6995 41.5728 62.6844 44.1494 62.8994 46.7393C63.014 48.1224 62.7715 49.452 62.2339 50.7295C62.151 50.9267 62.0694 51.1247 61.9841 51.3213C61.9708 51.3521 61.9415 51.3757 61.9067 51.4189C61.6415 49.5046 60.3869 48.25 59.0558 47.0553C57.6594 45.8016 56.0583 44.8576 54.3578 44.0868C53.6205 43.7527 52.8374 43.5313 52.0203 43.4742C51.9184 43.4669 51.8147 43.4872 51.62 43.5011Z" fill="currentColor"/>
<path d="M64.3423 24.8298C64.5567 24.9831 64.7412 25.1778 64.9069 25.4118C65.2549 25.9041 65.8007 26.1717 66.3535 26.3302C67.5146 26.6634 67.9482 27.3876 68.0108 28.484C68.11 30.2182 67.5609 31.7074 66.4276 33.0046C66.0532 33.4331 65.7469 33.9115 65.4938 34.424C65.4261 34.5604 65.4122 34.6928 65.4107 34.8383C65.4091 34.9928 65.4155 35.1573 65.3662 35.2994C65.2758 35.56 65.1554 35.8304 64.8292 35.8576C64.5356 35.8818 64.4497 35.616 64.3275 35.4246C63.8144 34.6242 63.711 33.7034 63.5903 32.7936C63.5147 32.2242 63.4751 31.6497 63.4733 31.0721C63.4715 30.4722 63.4778 29.8762 63.6142 29.2875C63.7854 28.549 63.6302 27.8312 63.4252 27.1294C63.1794 26.2869 62.8446 25.4983 62.4268 24.7605L62.8661 24.8298H64.3423Z" fill="currentColor"/>
<path d="M44.2842 42.816C45.6561 45.4879 47.7682 47.219 50.3811 48.3732C53.0082 49.5337 55.7541 49.9138 58.6555 49.4738C58.3745 49.9377 57.9512 50.0977 57.5397 50.2555C56.6969 50.5781 55.8125 50.6994 54.9153 50.7438C53.7378 50.8019 52.5652 50.707 51.4231 50.4427C48.7105 49.8152 46.3365 48.5325 44.3096 46.6157C44.1738 46.4875 44.1466 46.3394 44.1427 46.1649C44.1188 45.0854 44.1829 44.0095 44.2842 42.816Z" fill="currentColor"/>
<path d="M61.0932 38.664C61.2008 38.0907 61.2834 37.5642 61.1358 37.0242C60.9852 36.4729 60.6444 36.1185 60.0962 36.0357C59.1268 35.8893 58.1616 35.8615 57.3089 36.4862C56.8308 36.8367 56.419 37.2579 56.0059 37.6797C55.2618 38.4402 54.3673 38.7922 53.2954 38.6712C52.6308 38.5969 51.9038 38.029 51.7079 37.3659C52.1542 37.7423 52.6295 37.9761 53.1508 38.1073C53.7852 38.267 54.3268 38.0042 54.8224 37.6655C55.3304 37.3184 55.7565 36.8663 56.1441 36.3916C56.6467 35.7756 57.3261 35.5434 58.0654 35.4373C58.4688 35.3792 58.8661 35.3039 59.2493 35.173C59.7896 34.9889 59.9895 34.395 59.7352 33.8471C59.4966 33.333 59.0687 33.0569 58.5837 32.8196C58.3216 32.6914 58.0748 32.5166 57.8526 32.3261C57.36 31.9043 57.4041 31.2145 57.962 30.6669C58.5886 30.0522 59.3158 29.8073 60.1797 30.1214C60.3859 30.1967 60.6112 30.1849 60.8201 30.1356C61.388 30.002 61.9408 30.2521 62.3051 30.8287C62.6305 31.3437 62.5882 31.8789 62.1993 32.3439C61.9132 32.6859 61.5737 32.9898 61.1673 33.1319C60.5903 33.3339 60.5549 33.822 60.4651 34.2665C60.3566 34.8044 60.5994 35.2211 61.033 35.5673C61.9586 36.3066 62.0427 37.7121 61.2416 38.5872C61.2199 38.6111 61.1812 38.6195 61.0932 38.664Z" fill="currentColor"/>
<path d="M53.3287 26.2298C53.2719 26.1527 53.2386 26.1264 53.2316 26.0944C53.2047 25.9728 53.0257 25.8621 53.1343 25.7445C53.2341 25.6363 53.3441 25.798 53.45 25.8325C54.1503 26.0587 54.6852 26.5234 55.1457 27.0747C55.2857 27.2422 55.4115 27.3544 55.6425 27.358C55.7922 27.3604 55.9497 27.417 56.087 27.4838C56.2119 27.5446 56.2866 27.6689 56.1121 27.7614C55.5303 28.0704 55.0753 28.5207 54.619 29.1055C54.6879 28.6528 54.8213 28.2972 54.8146 27.9241C54.8128 27.837 54.873 27.7121 54.7741 27.6658C54.6447 27.6051 54.6401 27.7572 54.5845 27.8234C53.8542 28.6948 52.4639 28.8079 51.6106 28.0713C51.4434 27.9268 51.2928 27.7983 51.5849 27.586H50.7509C51.4455 26.7239 52.3514 26.4518 53.3287 26.2298Z" fill="currentColor"/>
<path d="M61.0891 26.5212C61.3634 27.1547 62.119 27.1148 62.5027 27.5883C62.7238 27.8608 62.9742 28.1048 63.0803 28.569C62.5989 28.1973 62.2094 28.5088 61.803 28.5662C61.6842 28.5829 61.5687 28.6128 61.4499 28.5932C61.2231 28.556 61.0794 28.4822 61.0846 28.1886C61.0943 27.6425 61.0205 27.0961 61.0891 26.5212Z" fill="currentColor"/>
<path d="M46.8428 16.1268C46.7657 15.2568 46.7557 14.3745 46.5985 13.5194C46.2486 11.618 45.9097 9.70785 45.405 7.84458C45.0007 6.35052 44.8985 6.2843 46.2341 5.47362C46.942 5.04393 47.7221 4.73097 48.4787 4.38595C48.811 4.23446 49.1669 4.13437 49.5119 4.0107C47.2401 4.12409 45.2257 4.87914 43.4519 6.33087C45.4171 9.33774 46.2441 12.6875 46.8428 16.1268ZM46.3267 18.2292C45.2656 13.8858 44.2729 9.63135 41.8133 5.91479C47.2535 1.66634 58.505 0.531204 64.6884 3.40533C64.2733 4.56496 63.8505 5.7255 63.442 6.89118C62.2954 10.1599 61.7901 13.5272 61.8974 16.9892C61.9295 18.0194 61.7079 18.29 60.6646 18.3215C59.4031 18.3596 58.1395 18.3212 56.8767 18.3178C56.5229 18.3172 56.1695 18.3245 55.8157 18.3281C55.8078 18.3925 55.7996 18.4569 55.7918 18.5213C57.2 18.7545 58.6042 19.0139 60.0169 19.215C62.2476 19.5328 64.487 19.791 66.7162 20.1197C67.3321 20.2104 67.9357 20.4315 68.5238 20.6495C68.9299 20.8001 69.0185 21.1227 68.8138 21.5325C68.45 22.2594 67.854 22.7172 67.1326 23.0298C65.8227 23.5977 64.4523 23.7286 63.0952 23.3204C60.3985 22.51 57.7185 21.6437 55.0437 20.7638C52.4054 19.8957 49.7641 19.0644 46.9623 18.9156C44.584 18.7896 42.3231 19.1049 40.3438 20.5576C41.8538 18.6861 43.9678 18.2758 46.3267 18.2292Z" fill="currentColor"/>
<path d="M68.7243 22.6196C67.7569 24.4793 66.0615 25.1717 64.1526 25.4959C61.8176 25.8926 59.5322 25.4853 57.2362 25.0819C54.1525 24.5401 51.0589 24.0451 47.9574 23.6166C47.0826 23.4956 46.1615 23.6375 45.2701 23.736C44.7089 23.798 44.0282 23.9961 43.9801 24.6256C43.9463 25.0653 44.3536 25.5385 44.5392 25.9431C43.2928 25.5618 41.8859 25.1225 40.7574 24.0959C39.6377 23.0778 39.677 21.8716 40.8686 20.9318C41.8344 20.1704 42.9829 19.8426 44.1764 19.653C46.6849 19.2542 49.1342 19.6285 51.5264 20.3454C54.5689 21.2568 57.5873 22.251 60.6069 23.2383C62.2318 23.7699 63.8692 24.1065 65.5907 23.9205C66.7669 23.7932 67.7905 23.3308 68.7243 22.6196Z" fill="currentColor"/>
<path d="M110.773 71.2117C110.922 71.4464 111.066 71.6199 111.205 71.7321C111.344 71.844 111.531 71.9214 111.766 71.964V72.5564H108.948L106.018 67.6255H104.305V70.6674C104.305 71.105 104.34 71.4146 104.409 71.596C104.478 71.7775 104.679 71.8999 105.009 71.964V72.5564H101.424V71.964C101.733 71.9108 101.936 71.7666 102.032 71.5319C102.096 71.372 102.128 71.0835 102.128 70.6674V63.0151C102.128 62.5772 102.101 62.2891 102.048 62.1506C101.962 61.9262 101.754 61.7823 101.424 61.7182V61.1258H107.171C108.206 61.1258 109.065 61.3768 109.748 61.8784C110.517 62.4439 110.901 63.2231 110.901 64.2155C110.901 64.9948 110.663 65.6673 110.189 66.2327C109.714 66.7985 109.092 67.1562 108.324 67.3056L110.773 71.2117ZM106.306 66.2487C107 66.2487 107.555 66.1208 107.971 65.8647C108.473 65.5551 108.724 65.0749 108.724 64.4239C108.724 63.7514 108.462 63.2497 107.939 62.9189C107.491 62.6413 106.915 62.5025 106.21 62.5025H104.305V66.2487H106.306ZM90.1529 71.964C90.4625 71.9108 90.6651 71.7666 90.7613 71.5319C90.8254 71.372 90.8574 71.0835 90.8574 70.6674V63.0151C90.8574 62.5772 90.8305 62.2891 90.7773 62.1506C90.6917 61.9262 90.4837 61.7823 90.1529 61.7182V61.1258H98.99V63.4311H98.1896C98.0934 63.0042 97.9655 62.7429 97.8052 62.6468C97.6453 62.5506 97.3356 62.5025 96.8766 62.5025H93.0346V65.4323H95.8361C96.199 65.4323 96.466 65.3897 96.6365 65.3044C96.8821 65.1868 97.0209 64.9627 97.0529 64.6319H97.8533V67.6097H97.0529C97.0209 67.2786 96.9035 67.0627 96.7007 66.9611C96.4981 66.8598 96.2099 66.809 95.8361 66.809H93.0346V71.1797H97.261C97.6668 71.1797 97.9788 71.105 98.1974 70.9556C98.4164 70.8062 98.5579 70.5341 98.6217 70.1392H99.4221V72.5564H90.1529V71.964ZM76.8811 71.964C77.2334 71.9108 77.4629 71.7666 77.5696 71.5319C77.6337 71.3931 77.6658 71.105 77.6658 70.6674V63.0151C77.6658 62.5881 77.6337 62.2999 77.5696 62.1506C77.4735 61.9262 77.244 61.7823 76.8811 61.7182V61.1258H80.7555C82.89 61.1258 84.603 61.7662 85.8945 63.0471C87.0577 64.1995 87.6395 65.5765 87.6395 67.1773C87.6395 68.5756 87.2286 69.7443 86.4067 70.6834C85.3181 71.932 83.6532 72.5564 81.4117 72.5564H76.8811V71.964ZM79.8429 71.1797H80.7876C82.1855 71.1797 83.2689 70.886 84.0372 70.2991C84.9018 69.6375 85.3342 68.6288 85.3342 67.2735C85.3342 65.8647 84.8646 64.7172 83.9254 63.8315C82.9859 62.9455 81.8226 62.5025 80.4353 62.5025H79.8429V71.1797ZM63.6894 71.964C64.0417 71.9108 64.2712 71.7666 64.378 71.5319C64.4418 71.3931 64.4738 71.105 64.4738 70.6674V63.0151C64.4738 62.5881 64.4418 62.2999 64.378 62.1506C64.2818 61.9262 64.0523 61.7823 63.6894 61.7182V61.1258H67.5639C69.6984 61.1258 71.4113 61.7662 72.7028 63.0471C73.8661 64.1995 74.4478 65.5765 74.4478 67.1773C74.4478 68.5756 74.0369 69.7443 73.215 70.6834C72.1265 71.932 70.4616 72.5564 68.22 72.5564H63.6894V71.964ZM66.6513 71.1797H67.5959C68.9938 71.1797 70.0772 70.886 70.8456 70.2991C71.7101 69.6375 72.1425 68.6288 72.1425 67.2735C72.1425 65.8647 71.6729 64.7172 70.7337 63.8315C69.7942 62.9455 68.631 62.5025 67.2436 62.5025H66.6513V71.1797ZM59.1268 66.7211C59.1268 65.4858 58.8172 64.4692 58.1982 63.6688C57.526 62.7962 56.5974 62.3586 55.4127 62.3586C54.1638 62.3586 53.198 62.8122 52.515 63.7166C51.896 64.5357 51.5863 65.5926 51.5863 66.8813C51.5863 68.1486 51.8905 69.1812 52.4989 69.9816C53.1714 70.8649 54.1212 71.3079 55.3486 71.3079C56.608 71.3079 57.5686 70.8434 58.2303 69.9175C58.8281 69.0851 59.1268 68.0204 59.1268 66.7211ZM49.281 66.8332C49.281 65.0961 49.8628 63.6712 51.026 62.5561C52.1896 61.4433 53.6462 60.8857 55.3966 60.8857C57.1042 60.8857 58.5372 61.4382 59.695 62.54C60.8531 63.6446 61.4322 65.0483 61.4322 66.7531C61.4322 68.5329 60.8664 69.9816 59.7352 71.1022C58.6037 72.2205 57.1362 72.7808 55.3325 72.7808C53.5609 72.7808 52.1095 72.231 50.978 71.1343C49.8468 70.0351 49.281 68.6022 49.281 66.8332ZM40.9241 65.6086H43.918C44.2808 65.6086 44.5475 65.5657 44.7184 65.4804C44.9639 65.3631 45.1027 65.139 45.1348 64.8079H45.9352V67.7857H45.1348C45.1027 67.4549 44.9854 67.2387 44.7825 67.1374C44.5796 67.0358 44.2914 66.9853 43.918 66.9853H40.9241V70.662C40.9241 71.0995 40.9589 71.4119 41.0284 71.5933C41.0977 71.7747 41.2978 71.8975 41.6287 71.9613V72.5564H38.0427V71.964C38.3521 71.9108 38.5549 71.7666 38.6508 71.5319C38.7149 71.372 38.747 71.0835 38.747 70.6674V63.0151C38.747 62.5772 38.7204 62.2891 38.6668 62.1506C38.5816 61.9262 38.3735 61.7823 38.0427 61.7182V61.1258H47.3119V63.5433H46.5115C46.458 63.0843 46.2874 62.7856 45.9993 62.6468C45.7964 62.5506 45.4389 62.5025 44.9267 62.5025H40.9241V65.6086ZM33.3377 66.7211C33.3377 65.4858 33.0283 64.4692 32.4091 63.6688C31.7369 62.7962 30.8083 62.3586 29.6235 62.3586C28.3747 62.3586 27.4089 62.8122 26.7258 63.7166C26.1068 64.5357 25.7972 65.5926 25.7972 66.8813C25.7972 68.1486 26.1014 69.1812 26.7098 69.9816C27.3823 70.8649 28.3321 71.3079 29.5594 71.3079C30.8188 71.3079 31.7795 70.8434 32.4411 69.9175C33.0389 69.0851 33.3377 68.0204 33.3377 66.7211ZM23.4919 66.8332C23.4919 65.0961 24.0736 63.6712 25.2369 62.5561C26.4005 61.4433 27.857 60.8857 29.6075 60.8857C31.3154 60.8857 32.748 61.4382 33.9058 62.54C35.064 63.6446 35.643 65.0483 35.643 66.7531C35.643 68.5329 35.0773 69.9816 33.9461 71.1022C32.8146 72.2205 31.3471 72.7808 29.5434 72.7808C27.7718 72.7808 26.3203 72.231 25.1888 71.1343C24.0576 70.0351 23.4919 68.6022 23.4919 66.8332ZM21.1067 71.2117C21.2561 71.4464 21.4 71.6199 21.5388 71.7321C21.6776 71.844 21.8644 71.9214 22.0991 71.964V72.5564H19.2815L16.3517 67.6255H14.6387V70.6674C14.6387 71.105 14.6735 71.4146 14.7428 71.596C14.8123 71.7775 15.0125 71.8999 15.3433 71.964V72.5564H11.7571V71.964C12.0667 71.9108 12.2696 71.7666 12.3655 71.5319C12.4296 71.372 12.4616 71.0835 12.4616 70.6674V63.0151C12.4616 62.5772 12.435 62.2891 12.3815 62.1506C12.2962 61.9262 12.0882 61.7823 11.7571 61.7182V61.1258H17.5044C18.5398 61.1258 19.3988 61.3768 20.0819 61.8784C20.8506 62.4439 21.2346 63.2231 21.2346 64.2155C21.2346 64.9948 20.9972 65.6673 20.5222 66.2327C20.0474 66.7985 19.4257 67.1562 18.6571 67.3056L21.1067 71.2117ZM16.6399 66.2487C17.3339 66.2487 17.8887 66.1208 18.3051 65.8647C18.8065 65.5551 19.0574 65.0749 19.0574 64.4239C19.0574 63.7514 18.7959 63.2497 18.2731 62.9189C17.8246 62.6413 17.2483 62.5025 16.5438 62.5025H14.6387V66.2487H16.6399ZM3.35209 69.3705V70.6674C3.35209 71.105 3.38686 71.4146 3.45641 71.596C3.52565 71.7775 3.72583 71.8999 4.05663 71.964V72.5564H0.470703V71.964C0.780039 71.9108 0.982932 71.7666 1.07879 71.5319C1.14289 71.372 1.17494 71.0835 1.17494 70.6674V63.0151C1.17494 62.5772 1.14834 62.2891 1.09482 62.1506C1.00954 61.9262 0.801508 61.7823 0.470703 61.7182V61.1258H5.72154C7.04506 61.1258 8.06439 61.446 8.77952 62.0865C9.43055 62.6734 9.75591 63.4472 9.75591 64.4078C9.75591 65.2723 9.49979 66.0247 8.98755 66.6651C8.55001 67.1988 7.93104 67.663 7.13033 68.0579C6.59693 68.314 5.83917 68.5967 4.85703 68.9064L3.35209 69.3705ZM3.35209 68.0098C4.62239 67.5508 5.49748 67.1668 5.97796 66.8571C6.95979 66.2381 7.45055 65.4964 7.45055 64.6319C7.45055 63.9594 7.21319 63.4366 6.73815 63.0628C6.26311 62.6894 5.68435 62.5025 5.00127 62.5025H3.35209V68.0098Z" fill="currentColor"/>
</svg>
